<svg width="29" height="25" viewBox="0 0 29 25" fill="none" xmlns="http://www.w3.org/2000/svg">
<path d="M24.4688 4.6875H4.53128C4.05058 4.6875 3.58956 4.85212 3.24965 5.14515C2.90974 5.43817 2.71878 5.8356 2.71878 6.25V21.875C2.71669 22.173 2.81447 22.4651 3.00035 22.7163C3.18624 22.9675 3.45233 23.1671 3.76663 23.291C4.00614 23.3872 4.26708 23.4371 4.53128 23.4375C4.95677 23.4366 5.36814 23.3058 5.69242 23.0684C5.69782 23.0653 5.70277 23.0617 5.70714 23.0576L9.34574 20.3125H24.4688C24.9495 20.3125 25.4105 20.1479 25.7504 19.8549C26.0903 19.5618 26.2813 19.1644 26.2813 18.75V6.25C26.2813 5.8356 26.0903 5.43817 25.7504 5.14515C25.4105 4.85212 24.9495 4.6875 24.4688 4.6875ZM9.51566 13.6719C9.2468 13.6719 8.98398 13.6031 8.76043 13.4744C8.53688 13.3456 8.36265 13.1626 8.25976 12.9485C8.15687 12.7343 8.12995 12.4987 8.1824 12.2714C8.23485 12.0441 8.36432 11.8352 8.55443 11.6714C8.74455 11.5075 8.98676 11.3959 9.25046 11.3506C9.51415 11.3054 9.78747 11.3286 10.0359 11.4173C10.2843 11.506 10.4966 11.6562 10.6459 11.8489C10.7953 12.0417 10.875 12.2682 10.875 12.5C10.875 12.8108 10.7318 13.1089 10.4769 13.3286C10.2219 13.5484 9.87619 13.6719 9.51566 13.6719ZM14.5 13.6719C14.2312 13.6719 13.9684 13.6031 13.7448 13.4744C13.5213 13.3456 13.347 13.1626 13.2441 12.9485C13.1412 12.7343 13.1143 12.4987 13.1668 12.2714C13.2192 12.0441 13.3487 11.8352 13.5388 11.6714C13.7289 11.5075 13.9711 11.3959 14.2348 11.3506C14.4985 11.3054 14.7718 11.3286 15.0202 11.4173C15.2686 11.506 15.4809 11.6562 15.6303 11.8489C15.7797 12.0417 15.8594 12.2682 15.8594 12.5C15.8594 12.8108 15.7162 13.1089 15.4613 13.3286C15.2063 13.5484 14.8606 13.6719 14.5 13.6719ZM19.4844 13.6719C19.2155 13.6719 18.9527 13.6031 18.7292 13.4744C18.5056 13.3456 18.3314 13.1626 18.2285 12.9485C18.1256 12.7343 18.0987 12.4987 18.1512 12.2714C18.2036 12.0441 18.3331 11.8352 18.5232 11.6714C18.7133 11.5075 18.9555 11.3959 19.2192 11.3506C19.4829 11.3054 19.7562 11.3286 20.0046 11.4173C20.253 11.506 20.4653 11.6562 20.6147 11.8489C20.7641 12.0417 20.8438 12.2682 20.8438 12.5C20.8438 12.8108 20.7006 13.1089 20.4456 13.3286C20.1907 13.5484 19.8449 13.6719 19.4844 13.6719Z" fill="white"/>
</svg>
