<svg width="35" height="29" viewBox="0 0 35 29" fill="none" xmlns="http://www.w3.org/2000/svg">
<path id="Vector" d="M3.18182 14.5C1.43182 14.5 0 13.05 0 11.2778V3.22222C0 1.45 1.43182 0 3.18182 0H15.9091C17.6591 0 19.0909 1.45 19.0909 3.22222V11.2778C19.0909 13.05 17.6591 14.5 15.9091 14.5H12.7273V19.3333L7.95455 14.5H3.18182ZM31.8182 24.1667C33.5682 24.1667 35 22.7167 35 20.9444V12.8889C35 11.1167 33.5682 9.66667 31.8182 9.66667H22.2727V11.2778C22.2727 14.8222 19.4091 17.7222 15.9091 17.7222V20.9444C15.9091 22.7167 17.3409 24.1667 19.0909 24.1667H22.2727V29L27.0455 24.1667H31.8182Z" fill="url(#paint0_linear_96_8249)"/>
<defs>
<linearGradient id="paint0_linear_96_8249" x1="17.5" y1="-6.45533e-07" x2="35.3234" y2="28.7999" gradientUnits="userSpaceOnUse">
<stop stop-color="#727DCD"/>
<stop offset="1" stop-color="#58E1FF"/>
</linearGradient>
</defs>
</svg>
