<svg width="20" height="20" viewBox="0 0 20 20" fill="none" xmlns="http://www.w3.org/2000/svg">
<path d="M8.07692 3.21429V3.57143H11.9231V3.21429C11.9231 2.74068 11.7205 2.28648 11.3598 1.9516C10.9992 1.61671 10.51 1.42857 10 1.42857C9.48997 1.42857 9.00083 1.61671 8.64018 1.9516C8.27953 2.28648 8.07692 2.74068 8.07692 3.21429ZM6.53846 3.57143V3.21429C6.53846 2.3618 6.90316 1.54424 7.55232 0.941442C8.20149 0.338647 9.08194 0 10 0C10.9181 0 11.7985 0.338647 12.4477 0.941442C13.0968 1.54424 13.4615 2.3618 13.4615 3.21429V3.57143H19.2308C19.4348 3.57143 19.6304 3.64668 19.7747 3.78064C19.919 3.91459 20 4.09627 20 4.28571C20 4.47515 19.919 4.65684 19.7747 4.79079C19.6304 4.92475 19.4348 5 19.2308 5H18.0708L16.6154 16.8343C16.5081 17.7058 16.059 18.5102 15.354 19.0941C14.6489 19.678 13.737 20.0004 12.7923 20H7.20769C6.26297 20.0004 5.35113 19.678 4.64604 19.0941C3.94095 18.5102 3.49194 17.7058 3.38462 16.8343L1.92923 5H0.769231C0.565218 5 0.369561 4.92475 0.225302 4.79079C0.0810437 4.65684 0 4.47515 0 4.28571C0 4.09627 0.0810437 3.91459 0.225302 3.78064C0.369561 3.64668 0.565218 3.57143 0.769231 3.57143H6.53846ZM4.91385 16.6714C4.97807 17.1942 5.2472 17.6768 5.66994 18.0272C6.09269 18.3776 6.63949 18.5713 7.20615 18.5714H12.7931C13.3597 18.5713 13.9065 18.3776 14.3293 18.0272C14.752 17.6768 15.0212 17.1942 15.0854 16.6714L16.5231 5H3.47769L4.91385 16.6714ZM7.69231 7.5C7.89632 7.5 8.09198 7.57526 8.23624 7.70921C8.3805 7.84316 8.46154 8.02485 8.46154 8.21429V15.3571C8.46154 15.5466 8.3805 15.7283 8.23624 15.8622C8.09198 15.9962 7.89632 16.0714 7.69231 16.0714C7.4883 16.0714 7.29264 15.9962 7.14838 15.8622C7.00412 15.7283 6.92308 15.5466 6.92308 15.3571V8.21429C6.92308 8.02485 7.00412 7.84316 7.14838 7.70921C7.29264 7.57526 7.4883 7.5 7.69231 7.5ZM13.0769 8.21429C13.0769 8.02485 12.9959 7.84316 12.8516 7.70921C12.7074 7.57526 12.5117 7.5 12.3077 7.5C12.1037 7.5 11.908 7.57526 11.7638 7.70921C11.6195 7.84316 11.5385 8.02485 11.5385 8.21429V15.3571C11.5385 15.5466 11.6195 15.7283 11.7638 15.8622C11.908 15.9962 12.1037 16.0714 12.3077 16.0714C12.5117 16.0714 12.7074 15.9962 12.8516 15.8622C12.9959 15.7283 13.0769 15.5466 13.0769 15.3571V8.21429Z" fill="#FF2B2B"/>
</svg>
