<svg width="26" height="30" viewBox="0 0 26 30" fill="none" xmlns="http://www.w3.org/2000/svg">
<path id="Vector" fill-rule="evenodd" clip-rule="evenodd" d="M11.592 0H14.408C16.8587 0 18.8 0 20.3187 0.213488C21.8813 0.433953 23.1467 0.897209 24.1453 1.94093C25.1427 2.98605 25.5853 4.31023 25.796 5.94558C26 7.53628 26 9.56651 26 12.1312V17.8688C26 20.4335 26 22.4651 25.796 24.0544C25.5853 25.6898 25.1427 27.014 24.1453 28.0591C23.1467 29.1028 21.8813 29.566 20.3187 29.7865C18.7987 30 16.8587 30 14.408 30H11.592C9.14133 30 7.2 30 5.68133 29.7865C4.11867 29.566 2.85333 29.1028 1.85467 28.0591C0.857333 27.014 0.414667 25.6898 0.204 24.0544C1.58946e-07 22.4637 0 20.4335 0 17.8688V12.1312C0 9.56651 1.58946e-07 7.53488 0.204 5.94558C0.414667 4.31023 0.857333 2.98605 1.85467 1.94093C2.85333 0.897209 4.11867 0.433953 5.68133 0.213488C7.20133 0 9.14133 0 11.592 0ZM5.94667 2.28837C4.60533 2.47674 3.832 2.83116 3.26667 3.4214C2.704 4.01163 2.36533 4.82093 2.18533 6.22465C2.00133 7.65907 1.99867 9.54837 1.99867 12.2093V17.7907C1.99867 20.4516 2.00133 22.3423 2.18533 23.7767C2.36533 25.1791 2.704 25.9884 3.268 26.5786C3.832 27.1688 4.60533 27.5233 5.94667 27.7116C7.31733 27.9042 9.12267 27.907 11.6653 27.907H14.332C16.8747 27.907 18.6813 27.9042 20.052 27.7116C21.392 27.5233 22.1653 27.1688 22.7293 26.5786C23.2933 25.9884 23.632 25.1791 23.812 23.7753C23.996 22.3423 23.9987 20.4516 23.9987 17.7907V12.2093C23.9987 9.54837 23.996 7.65907 23.812 6.22326C23.632 4.82093 23.2933 4.01163 22.7293 3.4214C22.1653 2.83116 21.392 2.47674 20.0507 2.28837C18.6813 2.09581 16.8747 2.09302 14.332 2.09302H11.6653C9.12267 2.09302 7.31867 2.09581 5.94667 2.28837ZM6.66667 12.2093C6.66667 11.9317 6.77202 11.6656 6.95956 11.4693C7.1471 11.273 7.40145 11.1628 7.66667 11.1628H18.3333C18.5986 11.1628 18.8529 11.273 19.0404 11.4693C19.228 11.6656 19.3333 11.9317 19.3333 12.2093C19.3333 12.4869 19.228 12.753 19.0404 12.9493C18.8529 13.1456 18.5986 13.2558 18.3333 13.2558H7.66667C7.40145 13.2558 7.1471 13.1456 6.95956 12.9493C6.77202 12.753 6.66667 12.4869 6.66667 12.2093ZM6.66667 17.7907C6.66667 17.5131 6.77202 17.247 6.95956 17.0507C7.1471 16.8544 7.40145 16.7442 7.66667 16.7442H14.3333C14.5985 16.7442 14.8529 16.8544 15.0404 17.0507C15.228 17.247 15.3333 17.5131 15.3333 17.7907C15.3333 18.0682 15.228 18.3344 15.0404 18.5307C14.8529 18.727 14.5985 18.8372 14.3333 18.8372H7.66667C7.40145 18.8372 7.1471 18.727 6.95956 18.5307C6.77202 18.3344 6.66667 18.0682 6.66667 17.7907Z" fill="white"/>
</svg>
