<svg width="35" height="35" viewBox="0 0 35 35" fill="none" xmlns="http://www.w3.org/2000/svg">
<g id="mdi:event-star">
<path id="Vector" d="M30.597 27.708H10.1803V11.6663H30.597M26.222 1.45801V4.37467H14.5553V1.45801H11.6387V4.37467H10.1803C8.57617 4.37467 7.26367 5.68717 7.26367 7.29134V27.708C7.26367 28.4816 7.57096 29.2234 8.11794 29.7704C8.66492 30.3174 9.40679 30.6247 10.1803 30.6247H30.597C32.2158 30.6247 33.5137 29.3268 33.5137 27.708V7.29134C33.5137 6.51779 33.2064 5.77593 32.6594 5.22895C32.1124 4.68197 31.3706 4.37467 30.597 4.37467H29.1387V1.45801M18.7553 17.4997H13.4908L17.7491 20.5768L16.1303 25.608L20.3887 22.5018L24.647 25.608L23.0137 20.5913L27.272 17.4997H22.022L20.3887 12.483L18.7553 17.4997Z" fill="url(#paint0_linear_96_8269)"/>
</g>
<defs>
<linearGradient id="paint0_linear_96_8269" x1="20.3887" y1="1.45801" x2="20.3887" y2="30.6247" gradientUnits="userSpaceOnUse">
<stop stop-color="#727DCD"/>
<stop offset="1" stop-color="#58E1FF"/>
</linearGradient>
</defs>
</svg>
