<svg width="47" height="38" viewBox="0 0 47 38" fill="none" xmlns="http://www.w3.org/2000/svg">
<path d="M42.9571 14.1007L39.7376 11.4392L41.4685 9.97323L34.1094 3.88964L32.321 5.30805L29.0439 2.59895L30.7748 1.13302C31.6595 0.407994 32.7545 0.0544481 34.0599 0.072381C35.3653 0.0903138 36.4588 0.464294 37.3403 1.19432L44.7569 7.32544C45.6384 8.0542 46.0781 8.94763 46.0758 10.0057C46.0736 11.0638 45.6302 11.956 44.7455 12.6823L42.9571 14.1007ZM15.2643 36.8446C14.3797 37.5696 13.2938 37.9307 12.0068 37.928C10.7198 37.9253 9.63708 37.5596 8.75859 36.8308L1.33975 30.6997C0.458194 29.9709 0.0185391 29.0769 0.0207812 28.0175C0.0230233 26.9581 0.466458 26.0666 1.35108 25.3428L3.08188 23.9243L6.35896 26.6334L4.57057 28.0518L11.9871 34.1829L13.718 32.7169L16.9951 35.426L15.2643 36.8446ZM38.1624 20.9645L41.4509 18.2693L24.0307 3.86831L20.7421 6.56351L38.1624 20.9645ZM22.0083 34.2041L25.2969 31.4615L7.93414 17.108L4.58803 19.8031L22.0083 34.2041ZM21.6862 23.1103L28.0324 17.9565L24.3528 14.9147L18.0642 20.1161L21.6862 23.1103ZM25.2855 36.8658C24.4008 37.5908 23.3058 37.9519 22.0004 37.9492C20.6949 37.9464 19.6014 37.5806 18.7199 36.8519L1.3571 22.4984C0.475552 21.7697 0.0359125 20.868 0.0381867 19.7935C0.0404609 18.7189 0.483913 17.8191 1.36854 17.0941L4.65706 14.3989C5.54169 13.6739 6.62674 13.3127 7.91221 13.3155C9.19769 13.3182 10.282 13.6839 11.1651 14.4127L14.7871 17.407L21.1333 12.2057L17.5112 9.25884C16.6297 8.53007 16.19 7.62842 16.1923 6.55389C16.1946 5.47935 16.638 4.57956 17.5227 3.85454L20.8112 1.15934C21.6958 0.434313 22.7816 0.0731626 24.0686 0.0758865C25.3556 0.0786104 26.4392 0.444352 27.3192 1.17311L44.7394 15.5741C45.621 16.3029 46.0606 17.1963 46.0584 18.2544C46.0562 19.3125 45.6127 20.2047 44.7281 20.931L41.4396 23.6262C40.5549 24.3512 39.4599 24.7123 38.1545 24.7096C36.849 24.7068 35.7555 24.3411 34.874 23.6123L31.3095 20.6182L24.9633 25.8194L28.5853 28.8137C29.4669 29.5424 29.9065 30.4365 29.9043 31.4959C29.902 32.5552 29.4586 33.4468 28.574 34.1706L25.2855 36.8658Z" fill="white"/>
</svg>
