<svg width="24" height="23" viewBox="0 0 24 23" fill="none" xmlns="http://www.w3.org/2000/svg">
<path d="M22.378 8.50148L20.6959 6.89053L21.597 5.99876L17.7522 2.31659L16.821 3.1796L15.1089 1.53989L16.01 0.648113C16.4706 0.20702 17.0413 -0.00892313 17.7222 0.000282278C18.403 0.00948769 18.9737 0.23502 19.4343 0.67688L23.3091 4.38781C23.7697 4.8289 24 5.37049 24 6.01257C24 6.65464 23.7697 7.19661 23.3091 7.63847L22.378 8.50148ZM7.95995 22.3384C7.49937 22.7795 6.93347 23 6.26223 23C5.59099 23 5.02588 22.7795 4.56691 22.3384L0.690863 18.6274C0.230288 18.1863 0 17.6444 0 17.0015C0 16.3587 0.230288 15.8171 0.690863 15.3768L1.59199 14.5138L3.30413 16.1535L2.37297 17.0165L6.24781 20.7274L7.14894 19.8356L8.86108 21.4754L7.95995 22.3384ZM19.8849 12.6727L21.597 11.033L12.4956 2.31659L10.7835 3.95631L19.8849 12.6727ZM11.4743 20.7274L13.1865 19.0589L4.11514 10.3713L2.37297 12.011L11.4743 20.7274ZM11.2941 13.996L14.5982 10.8604L12.6758 9.01928L9.40175 12.1836L11.2941 13.996ZM13.1865 22.3384C12.7259 22.7795 12.1552 23 11.4743 23C10.7935 23 10.2228 22.7795 9.7622 22.3384L0.690863 13.6508C0.230288 13.2097 0 12.6631 0 12.011C0 11.359 0.230288 10.8124 0.690863 10.3713L2.403 8.73161C2.86358 8.29052 3.42909 8.06997 4.09952 8.06997C4.76996 8.06997 5.33587 8.29052 5.79725 8.73161L7.68961 10.5439L10.9937 7.37957L9.10138 5.59602C8.6408 5.15493 8.41051 4.60836 8.41051 3.95631C8.41051 3.30426 8.6408 2.75769 9.10138 2.31659L10.8135 0.67688C11.2741 0.235787 11.84 0.0152411 12.5112 0.0152411C13.1825 0.0152411 13.748 0.235787 14.2078 0.67688L23.3091 9.39325C23.7697 9.83435 24 10.3759 24 11.018C24 11.6601 23.7697 12.2021 23.3091 12.6439L21.597 14.2836C21.1364 14.7247 20.5657 14.9453 19.8849 14.9453C19.204 14.9453 18.6333 14.7247 18.1727 14.2836L16.3104 12.4713L13.0063 15.6357L14.8986 17.448C15.3592 17.8891 15.5895 18.431 15.5895 19.0739C15.5895 19.7167 15.3592 20.2583 14.8986 20.6986L13.1865 22.3384Z" fill="url(#paint0_linear_96_8155)"/>
<defs>
<linearGradient id="paint0_linear_96_8155" x1="12" y1="0" x2="12" y2="23" gradientUnits="userSpaceOnUse">
<stop stop-color="#727DCD"/>
<stop offset="1" stop-color="#58E1FF"/>
</linearGradient>
</defs>
</svg>
