<svg width="33" height="52" viewBox="0 0 33 52" fill="none" xmlns="http://www.w3.org/2000/svg">
<path d="M7.32481 41.9911L18.0319 51.9797L28.0205 41.2727L19.8716 41.5555L19.5631 32.6693C22.9037 32.0936 26.0974 30.4546 28.5883 27.7846C34.6564 21.28 34.3026 11.0874 27.798 5.01934C21.2935 -1.04875 11.1009 -0.694932 5.03281 5.80959C-1.03528 12.3141 -0.681462 22.5067 5.82306 28.5748C8.49313 31.0657 11.7927 32.4793 15.1653 32.822L15.4737 41.7082L7.32481 41.9911ZM5.10456 17.2034C4.9959 14.0732 6.10985 11.0948 8.24492 8.80618C10.38 6.51755 13.274 5.19975 16.4042 5.0911C19.5344 4.98244 22.5128 6.09638 24.8014 8.23145C27.0901 10.3665 28.4079 13.2605 28.5165 16.3907C28.6252 19.5209 27.5112 22.4993 25.3762 24.788C23.2411 27.0766 20.3471 28.3944 17.2169 28.5031C14.0867 28.6117 11.1083 27.4978 8.81965 25.3627C6.53102 23.2276 5.21322 20.3337 5.10456 17.2034Z" fill="white"/>
</svg>
