<svg width="24" height="24" viewBox="0 0 24 24" fill="none" xmlns="http://www.w3.org/2000/svg">
<g id="iconamoon:discount">
<g id="Group">
<path id="Vector" d="M10.5105 3.66489C10.698 3.45539 10.9277 3.2878 11.1844 3.17306C11.4412 3.05833 11.7192 2.99902 12.0005 2.99902C12.2817 2.99902 12.5597 3.05833 12.8165 3.17306C13.0732 3.2878 13.3029 3.45539 13.4905 3.66489L14.1905 4.44689C14.3905 4.67039 14.6383 4.84602 14.9154 4.96079C15.1926 5.07556 15.492 5.12652 15.7915 5.10989L16.8415 5.05189C17.1223 5.03641 17.4032 5.08034 17.666 5.18082C17.9287 5.28129 18.1672 5.43605 18.3661 5.63498C18.5649 5.83392 18.7196 6.07256 18.8199 6.33532C18.9203 6.59808 18.9641 6.87906 18.9485 7.15989L18.8905 8.20889C18.874 8.50823 18.925 8.80743 19.0398 9.08438C19.1545 9.36133 19.3301 9.60894 19.5535 9.80889L20.3355 10.5089C20.5451 10.6965 20.7129 10.9262 20.8277 11.183C20.9425 11.4399 21.0019 11.7181 21.0019 11.9994C21.0019 12.2807 20.9425 12.5589 20.8277 12.8157C20.7129 13.0726 20.5451 13.3023 20.3355 13.4899L19.5535 14.1899C19.33 14.39 19.1543 14.6377 19.0396 14.9149C18.9248 15.192 18.8738 15.4914 18.8905 15.7909L18.9485 16.8409C18.9639 17.1217 18.92 17.4027 18.8195 17.6654C18.7191 17.9281 18.5643 18.1667 18.3654 18.3655C18.1664 18.5644 17.9278 18.719 17.665 18.8194C17.4023 18.9197 17.1213 18.9635 16.8405 18.9479L15.7915 18.8899C15.4921 18.8734 15.1929 18.9245 14.916 19.0392C14.639 19.154 14.3914 19.3295 14.1915 19.5529L13.4915 20.3349C13.3039 20.5446 13.0741 20.7123 12.8173 20.8271C12.5605 20.942 12.2823 21.0013 12.001 21.0013C11.7196 21.0013 11.4414 20.942 11.1846 20.8271C10.9278 20.7123 10.698 20.5446 10.5105 20.3349L9.81045 19.5529C9.61039 19.3294 9.36262 19.1538 9.08549 19.039C8.80835 18.9242 8.50895 18.8733 8.20945 18.8899L7.15945 18.9479C6.87861 18.9634 6.59766 18.9194 6.33494 18.819C6.07223 18.7185 5.83366 18.5637 5.63482 18.3648C5.43598 18.1659 5.28133 17.9272 5.18098 17.6645C5.08064 17.4017 5.03684 17.1207 5.05245 16.8399L5.11045 15.7909C5.12692 15.4916 5.07589 15.1924 4.96113 14.9154C4.84637 14.6385 4.67081 14.3908 4.44745 14.1909L3.66545 13.4909C3.45578 13.3033 3.28805 13.0736 3.17322 12.8167C3.05838 12.5599 2.99902 12.2817 2.99902 12.0004C2.99902 11.7191 3.05838 11.4409 3.17322 11.184C3.28805 10.9272 3.45578 10.6975 3.66545 10.5099L4.44745 9.8099C4.67095 9.60983 4.84658 9.36206 4.96135 9.08493C5.07611 8.80779 5.12707 8.50839 5.11045 8.20889L5.05245 7.15889C5.03712 6.87813 5.08116 6.59729 5.1817 6.3347C5.28223 6.0721 5.43701 5.83366 5.63593 5.63493C5.83485 5.4362 6.07344 5.28164 6.33613 5.18135C6.59882 5.08106 6.8797 5.03729 7.16045 5.05289L8.20945 5.11089C8.50879 5.12736 8.80799 5.07633 9.08494 4.96157C9.36189 4.84681 9.6095 4.67125 9.80945 4.44789L10.5095 3.66589L10.5105 3.66489Z" stroke="url(#paint0_linear_110_10056)" stroke-width="2"/>
<path id="Vector_2" d="M9.5 9.5H9.51V9.51H9.5V9.5ZM14.5 14.5H14.51V14.51H14.5V14.5Z" stroke="url(#paint1_linear_110_10056)" stroke-width="3" stroke-linejoin="round"/>
<path id="Vector_3" d="M15 9L9 15" stroke="url(#paint2_linear_110_10056)" stroke-width="2" stroke-linecap="round" stroke-linejoin="round"/>
</g>
</g>
<defs>
<linearGradient id="paint0_linear_110_10056" x1="12.0005" y1="2.99902" x2="12.0005" y2="21.0013" gradientUnits="userSpaceOnUse">
<stop stop-color="#58E1FF"/>
<stop offset="1" stop-color="#727DCD"/>
</linearGradient>
<linearGradient id="paint1_linear_110_10056" x1="12.005" y1="9.5" x2="12.005" y2="14.51" gradientUnits="userSpaceOnUse">
<stop stop-color="#58E1FF"/>
<stop offset="1" stop-color="#727DCD"/>
</linearGradient>
<linearGradient id="paint2_linear_110_10056" x1="12" y1="9" x2="12" y2="15" gradientUnits="userSpaceOnUse">
<stop stop-color="#58E1FF"/>
<stop offset="1" stop-color="#727DCD"/>
</linearGradient>
</defs>
</svg>
