<svg width="32" height="32" viewBox="0 0 32 32" fill="none" xmlns="http://www.w3.org/2000/svg">
<path fill-rule="evenodd" clip-rule="evenodd" d="M16 2.66663H8C6.93913 2.66663 5.92172 3.08805 5.17157 3.8382C4.42143 4.58834 4 5.60576 4 6.66663V25.3333C4 26.3942 4.42143 27.4116 5.17157 28.1617C5.92172 28.9119 6.93913 29.3333 8 29.3333H24C25.0609 29.3333 26.0783 28.9119 26.8284 28.1617C27.5786 27.4116 28 26.3942 28 25.3333V14.6666H20C18.9391 14.6666 17.9217 14.2452 17.1716 13.4951C16.4214 12.7449 16 11.7275 16 10.6666V2.66663ZM28 12V11.7706C27.9994 10.7103 27.5779 9.6936 26.828 8.94396L21.724 3.83729C20.9738 3.08758 19.9566 2.6665 18.896 2.66663H18.6667V10.6666C18.6667 11.0202 18.8071 11.3594 19.0572 11.6094C19.3072 11.8595 19.6464 12 20 12H28Z" fill="url(#paint0_linear_315_3628)"/>
<defs>
<linearGradient id="paint0_linear_315_3628" x1="16" y1="2.66663" x2="16" y2="29.3333" gradientUnits="userSpaceOnUse">
<stop stop-color="#727DCD"/>
<stop offset="1" stop-color="#58E1FF"/>
</linearGradient>
</defs>
</svg>
