<svg width="41" height="41" viewBox="0 0 41 41" fill="none" xmlns="http://www.w3.org/2000/svg">
<path d="M41 14.6429V0H26.3571L32.1228 5.76562L25.8355 12.0529C23.1357 10.0029 19.7587 8.78571 16.1071 8.78571C7.21161 8.78571 0 15.9973 0 24.8929C0 33.7884 7.21161 41 16.1071 41C25.0027 41 32.2143 33.7884 32.2143 24.8929C32.2143 21.2413 30.9971 17.8643 28.9471 15.1645L35.2344 8.87723L41 14.6429ZM24.3895 33.1752C22.1748 35.39 19.2371 36.6071 16.1071 36.6071C12.9772 36.6071 10.0395 35.39 7.82478 33.1752C5.61004 30.9605 4.39286 28.0228 4.39286 24.8929C4.39286 21.7629 5.61004 18.8252 7.82478 16.6105C10.0395 14.3958 12.9772 13.1786 16.1071 13.1786C19.2371 13.1786 22.1748 14.3958 24.3895 16.6105C26.6042 18.8252 27.8214 21.7629 27.8214 24.8929C27.8214 28.0228 26.6042 30.9605 24.3895 33.1752Z" fill="white"/>
</svg>
