<svg width="43" height="47" viewBox="0 0 43 47" fill="none" xmlns="http://www.w3.org/2000/svg">
<path d="M9.46 0.0125577C9.46 0.0125577 23.8005 -0.764407 22.4675 9.90465C22.4675 9.90465 24.5208 2.80774 33.54 6.05773C33.54 6.05773 31.6373 13.0694 24.08 11.3638C24.08 11.3638 25.6495 6.19038 31.1858 6.00087C31.1858 6.00087 26.8965 5.02493 22.36 10.6248C22.36 10.6248 20.2315 1.67071 12.298 1.17801C12.298 1.17801 20.382 3.01619 20.64 11.3638C20.64 11.3733 9.202 12.0271 9.46 0.0125577ZM43 29.9162C43 34.5117 41.9573 38.9461 39.56 42.4519C35.0235 45.3797 28.2725 47 21.5 47C14.7382 47 7.9765 45.3797 3.44 42.4519C1.04275 38.9461 0 34.5117 0 29.9162C0 25.3303 1.90275 20.9432 4.3 17.4374C8.8365 14.5096 14.7382 12.8325 21.5 12.8325C28.2725 12.8325 34.1635 14.5001 38.7 17.4374C41.0973 20.9432 43 25.3303 43 29.9162ZM12.9 39.7989C12.9 38.3302 11.5563 37.1458 9.89 37.1458C8.22375 37.1458 6.88 38.3302 6.88 39.7989C6.88 41.2675 8.22375 42.4519 9.89 42.4519C11.5563 42.4519 12.9 41.2675 12.9 39.7989ZM12.9 33.5263C12.9 32.0576 11.5563 30.8732 9.89 30.8732C8.22375 30.8732 6.88 32.0576 6.88 33.5263C6.88 34.9949 8.22375 36.1793 9.89 36.1793C11.5563 36.1793 12.9 34.9949 12.9 33.5263ZM12.9 27.2537C12.9 25.7851 11.5563 24.6007 9.89 24.6007C8.22375 24.6007 6.88 25.7851 6.88 27.2537C6.88 28.7224 8.22375 29.9068 9.89 29.9068C11.5563 29.9068 12.9 28.7224 12.9 27.2537ZM20.64 39.7989C20.64 38.3302 19.2962 37.1458 17.63 37.1458C15.9637 37.1458 14.62 38.3302 14.62 39.7989C14.62 41.2675 15.9637 42.4519 17.63 42.4519C19.2962 42.4519 20.64 41.2675 20.64 39.7989ZM20.64 33.5263C20.64 32.0576 19.2962 30.8732 17.63 30.8732C15.9637 30.8732 14.62 32.0576 14.62 33.5263C14.62 34.9949 15.9637 36.1793 17.63 36.1793C19.2962 36.1793 20.64 34.9949 20.64 33.5263ZM20.64 27.2537C20.64 25.7851 19.2962 24.6007 17.63 24.6007C15.9637 24.6007 14.62 25.7851 14.62 27.2537C14.62 28.7224 15.9637 29.9068 17.63 29.9068C19.2962 29.9068 20.64 28.7224 20.64 27.2537ZM28.38 39.7989C28.38 38.3302 27.0363 37.1458 25.37 37.1458C23.7038 37.1458 22.36 38.3302 22.36 39.7989C22.36 41.2675 23.7038 42.4519 25.37 42.4519C27.0363 42.4519 28.38 41.2675 28.38 39.7989ZM28.38 33.5263C28.38 32.0576 27.0363 30.8732 25.37 30.8732C23.7038 30.8732 22.36 32.0576 22.36 33.5263C22.36 34.9949 23.7038 36.1793 25.37 36.1793C27.0363 36.1793 28.38 34.9949 28.38 33.5263ZM28.38 27.2537C28.38 25.7851 27.0363 24.6007 25.37 24.6007C23.7038 24.6007 22.36 25.7851 22.36 27.2537C22.36 28.7224 23.7038 29.9068 25.37 29.9068C27.0363 29.9068 28.38 28.7224 28.38 27.2537ZM36.12 39.7989C36.12 38.3302 34.7762 37.1458 33.11 37.1458C31.4438 37.1458 30.1 38.3302 30.1 39.7989C30.1 41.2675 31.4438 42.4519 33.11 42.4519C34.7762 42.4519 36.12 41.2675 36.12 39.7989ZM36.12 33.5263C36.12 32.0576 34.7762 30.8732 33.11 30.8732C31.4438 30.8732 30.1 32.0576 30.1 33.5263C30.1 34.9949 31.4438 36.1793 33.11 36.1793C34.7762 36.1793 36.12 34.9949 36.12 33.5263ZM36.12 27.2537C36.12 25.7851 34.7762 24.6007 33.11 24.6007C31.4438 24.6007 30.1 25.7851 30.1 27.2537C30.1 28.7224 31.4438 29.9068 33.11 29.9068C34.7762 29.9068 36.12 28.7224 36.12 27.2537ZM38.7 23.5015C38.184 21.3886 37.9045 20.0052 36.98 18.1954C32.809 16.3099 27.2513 15.1634 21.5 15.1634C15.7488 15.1634 10.191 16.3099 6.02 18.1954C5.074 20.0431 4.816 21.4075 4.3 23.5015C8.8365 22.753 14.9103 22.0992 21.5 22.0992C28.0898 22.0992 34.1635 22.753 38.7 23.5015Z" fill="white"/>
</svg>
