<svg width="22" height="27" viewBox="0 0 22 27" fill="none" xmlns="http://www.w3.org/2000/svg">
<path d="M4.84 0.00721399C4.84 0.00721399 12.177 -0.439128 11.495 5.68991C11.495 5.68991 12.5455 1.61296 17.16 3.47997C17.16 3.47997 16.1865 7.50793 12.32 6.52816C12.32 6.52816 13.123 3.55617 15.9555 3.44731C15.9555 3.44731 13.761 2.88666 11.44 6.10359C11.44 6.10359 10.351 0.959772 6.292 0.676727C6.292 0.676727 10.428 1.73271 10.56 6.52816C10.56 6.5336 4.708 6.90918 4.84 0.00721399ZM22 17.1859C22 19.8259 21.4665 22.3733 20.24 24.3873C17.919 26.0692 14.465 27 11 27C7.5405 27 4.081 26.0692 1.76 24.3873C0.5335 22.3733 0 19.8259 0 17.1859C0 14.5514 0.9735 12.0312 2.2 10.0172C4.521 8.3353 7.5405 7.37185 11 7.37185C14.465 7.37185 17.479 8.32985 19.8 10.0172C21.0265 12.0312 22 14.5514 22 17.1859ZM6.6 22.8632C6.6 22.0195 5.9125 21.3391 5.06 21.3391C4.2075 21.3391 3.52 22.0195 3.52 22.8632C3.52 23.7069 4.2075 24.3873 5.06 24.3873C5.9125 24.3873 6.6 23.7069 6.6 22.8632ZM6.6 19.2598C6.6 18.4161 5.9125 17.7357 5.06 17.7357C4.2075 17.7357 3.52 18.4161 3.52 19.2598C3.52 20.1035 4.2075 20.7839 5.06 20.7839C5.9125 20.7839 6.6 20.1035 6.6 19.2598ZM6.6 15.6564C6.6 14.8127 5.9125 14.1323 5.06 14.1323C4.2075 14.1323 3.52 14.8127 3.52 15.6564C3.52 16.5001 4.2075 17.1805 5.06 17.1805C5.9125 17.1805 6.6 16.5001 6.6 15.6564ZM10.56 22.8632C10.56 22.0195 9.8725 21.3391 9.02 21.3391C8.1675 21.3391 7.48 22.0195 7.48 22.8632C7.48 23.7069 8.1675 24.3873 9.02 24.3873C9.8725 24.3873 10.56 23.7069 10.56 22.8632ZM10.56 19.2598C10.56 18.4161 9.8725 17.7357 9.02 17.7357C8.1675 17.7357 7.48 18.4161 7.48 19.2598C7.48 20.1035 8.1675 20.7839 9.02 20.7839C9.8725 20.7839 10.56 20.1035 10.56 19.2598ZM10.56 15.6564C10.56 14.8127 9.8725 14.1323 9.02 14.1323C8.1675 14.1323 7.48 14.8127 7.48 15.6564C7.48 16.5001 8.1675 17.1805 9.02 17.1805C9.8725 17.1805 10.56 16.5001 10.56 15.6564ZM14.52 22.8632C14.52 22.0195 13.8325 21.3391 12.98 21.3391C12.1275 21.3391 11.44 22.0195 11.44 22.8632C11.44 23.7069 12.1275 24.3873 12.98 24.3873C13.8325 24.3873 14.52 23.7069 14.52 22.8632ZM14.52 19.2598C14.52 18.4161 13.8325 17.7357 12.98 17.7357C12.1275 17.7357 11.44 18.4161 11.44 19.2598C11.44 20.1035 12.1275 20.7839 12.98 20.7839C13.8325 20.7839 14.52 20.1035 14.52 19.2598ZM14.52 15.6564C14.52 14.8127 13.8325 14.1323 12.98 14.1323C12.1275 14.1323 11.44 14.8127 11.44 15.6564C11.44 16.5001 12.1275 17.1805 12.98 17.1805C13.8325 17.1805 14.52 16.5001 14.52 15.6564ZM18.48 22.8632C18.48 22.0195 17.7925 21.3391 16.94 21.3391C16.0875 21.3391 15.4 22.0195 15.4 22.8632C15.4 23.7069 16.0875 24.3873 16.94 24.3873C17.7925 24.3873 18.48 23.7069 18.48 22.8632ZM18.48 19.2598C18.48 18.4161 17.7925 17.7357 16.94 17.7357C16.0875 17.7357 15.4 18.4161 15.4 19.2598C15.4 20.1035 16.0875 20.7839 16.94 20.7839C17.7925 20.7839 18.48 20.1035 18.48 19.2598ZM18.48 15.6564C18.48 14.8127 17.7925 14.1323 16.94 14.1323C16.0875 14.1323 15.4 14.8127 15.4 15.6564C15.4 16.5001 16.0875 17.1805 16.94 17.1805C17.7925 17.1805 18.48 16.5001 18.48 15.6564ZM19.8 13.5009C19.536 12.2871 19.393 11.4923 18.92 10.4527C16.786 9.3695 13.9425 8.71088 11 8.71088C8.0575 8.71088 5.214 9.3695 3.08 10.4527C2.596 11.5141 2.464 12.2979 2.2 13.5009C4.521 13.0709 7.6285 12.6953 11 12.6953C14.3715 12.6953 17.479 13.0709 19.8 13.5009Z" fill="url(#paint0_linear_96_8162)"/>
<defs>
<linearGradient id="paint0_linear_96_8162" x1="11" y1="0" x2="11" y2="27" gradientUnits="userSpaceOnUse">
<stop stop-color="#727DCD"/>
<stop offset="1" stop-color="#58E1FF"/>
</linearGradient>
</defs>
</svg>
