<svg width="33" height="40" viewBox="0 0 33 40" fill="none" xmlns="http://www.w3.org/2000/svg">
<g id="material-symbols:order-approve">
<path id="Vector" d="M23.7531 33.75L28.5312 28L27.0875 26.25L23.7531 30.2083L22.4125 28.5833L20.9688 30.375L23.7531 33.75ZM8.25 15H24.75V11.6667H8.25V15ZM24.75 38.3333C22.8479 38.3333 21.2263 37.5206 19.8853 35.895C18.5442 34.2694 17.8741 32.3044 17.875 30C17.875 27.6944 18.5455 25.7289 19.8866 24.1033C21.2277 22.4778 22.8488 21.6656 24.75 21.6667C26.6521 21.6667 28.2737 22.4794 29.6147 24.105C30.9558 25.7306 31.6259 27.6956 31.625 30C31.625 32.3056 30.9545 34.2711 29.6134 35.8967C28.2723 37.5222 26.6512 38.3344 24.75 38.3333ZM4.125 36.6667V8.33334C4.125 7.41667 4.3945 6.63167 4.9335 5.97834C5.4725 5.325 6.11967 4.99889 6.875 5H26.125C26.8813 5 27.5289 5.32667 28.0679 5.98C28.6069 6.63334 28.8759 7.41778 28.875 8.33334V19.4583C28.2333 19.0694 27.5628 18.7844 26.8634 18.6033C26.164 18.4222 25.4595 18.3322 24.75 18.3333H8.25V21.6667H18.0125C17.6229 22.1389 17.2622 22.6528 16.9304 23.2083C16.5985 23.7639 16.3061 24.3611 16.0531 25H8.25V28.3333H15.2281C15.1823 28.6111 15.1534 28.8822 15.1415 29.1467C15.1296 29.4111 15.1241 29.6956 15.125 30C15.125 31.1667 15.257 32.285 15.521 33.355C15.785 34.425 16.1801 35.4456 16.7062 36.4167L16.5 36.6667L14.4375 34.1667L12.375 36.6667L10.3125 34.1667L8.25 36.6667L6.1875 34.1667L4.125 36.6667Z" fill="url(#paint0_linear_96_8261)"/>
</g>
<defs>
<linearGradient id="paint0_linear_96_8261" x1="17.875" y1="5" x2="17.875" y2="38.3333" gradientUnits="userSpaceOnUse">
<stop stop-color="#727DCD"/>
<stop offset="0.510417" stop-color="#5BD6FA"/>
</linearGradient>
</defs>
</svg>
