<svg width="45" height="40" viewBox="0 0 45 40" fill="none" xmlns="http://www.w3.org/2000/svg">
<g id="carbon:order-details">
<path id="Vector" d="M26.7188 26.25H18.2812C17.1624 26.25 16.0893 26.6451 15.2981 27.3484C14.507 28.0516 14.0625 29.0054 14.0625 30V32.5H16.875V30C16.875 29.6685 17.0232 29.3505 17.2869 29.1161C17.5506 28.8817 17.9083 28.75 18.2812 28.75H26.7188C27.0917 28.75 27.4494 28.8817 27.7131 29.1161C27.9768 29.3505 28.125 29.6685 28.125 30V32.5H30.9375V30C30.9375 29.0054 30.493 28.0516 29.7019 27.3484C28.9107 26.6451 27.8376 26.25 26.7188 26.25ZM22.5 25C23.6125 25 24.7001 24.7068 25.6251 24.1574C26.5501 23.6079 27.2711 22.827 27.6968 21.9134C28.1226 20.9998 28.234 19.9945 28.0169 19.0246C27.7999 18.0546 27.2641 17.1637 26.4775 16.4645C25.6908 15.7652 24.6885 15.289 23.5974 15.0961C22.5062 14.9031 21.3752 15.0022 20.3474 15.3806C19.3196 15.759 18.4411 16.3999 17.823 17.2222C17.2049 18.0444 16.875 19.0111 16.875 20C16.875 21.3261 17.4676 22.5979 18.5225 23.5355C19.5774 24.4732 21.0082 25 22.5 25ZM22.5 17.5C23.0563 17.5 23.6 17.6466 24.0625 17.9213C24.5251 18.196 24.8855 18.5865 25.0984 19.0433C25.3113 19.5001 25.367 20.0028 25.2585 20.4877C25.1499 20.9727 24.8821 21.4181 24.4887 21.7678C24.0954 22.1174 23.5943 22.3555 23.0487 22.452C22.5031 22.5484 21.9376 22.4989 21.4237 22.3097C20.9098 22.1205 20.4705 21.8001 20.1615 21.3889C19.8525 20.9778 19.6875 20.4945 19.6875 20C19.6875 19.337 19.9838 18.7011 20.5113 18.2322C21.0387 17.7634 21.7541 17.5 22.5 17.5Z" fill="url(#paint0_linear_96_8258)"/>
<path id="Vector_2" d="M35.1562 6.25H30.9375V5C30.9375 4.33696 30.6412 3.70107 30.1137 3.23223C29.5863 2.76339 28.8709 2.5 28.125 2.5H16.875C16.1291 2.5 15.4137 2.76339 14.8863 3.23223C14.3588 3.70107 14.0625 4.33696 14.0625 5V6.25H9.84375C9.09783 6.25 8.38246 6.51339 7.85501 6.98223C7.32757 7.45107 7.03125 8.08696 7.03125 8.75V35C7.03125 35.663 7.32757 36.2989 7.85501 36.7678C8.38246 37.2366 9.09783 37.5 9.84375 37.5H35.1562C35.9022 37.5 36.6175 37.2366 37.145 36.7678C37.6724 36.2989 37.9688 35.663 37.9688 35V8.75C37.9688 8.08696 37.6724 7.45107 37.145 6.98223C36.6175 6.51339 35.9022 6.25 35.1562 6.25ZM16.875 5H28.125V10H16.875V5ZM35.1562 35H9.84375V8.75H14.0625V12.5H30.9375V8.75H35.1562V35Z" fill="url(#paint1_linear_96_8258)"/>
</g>
<defs>
<linearGradient id="paint0_linear_96_8258" x1="22.5" y1="15" x2="22.5" y2="32.5" gradientUnits="userSpaceOnUse">
<stop stop-color="#727DCD"/>
<stop offset="0.557292" stop-color="#58E1FF"/>
</linearGradient>
<linearGradient id="paint1_linear_96_8258" x1="22.5" y1="2.5" x2="22.5" y2="37.5" gradientUnits="userSpaceOnUse">
<stop stop-color="#727DCD"/>
<stop offset="0.557292" stop-color="#58E1FF"/>
</linearGradient>
</defs>
</svg>
