<svg width="36" height="37" viewBox="0 0 36 37" fill="none" xmlns="http://www.w3.org/2000/svg">
<g id="Group">
<path id="Vector" d="M25.1998 14.8003C25.1998 16.7629 24.4412 18.6451 23.091 20.0328C21.7407 21.4206 19.9094 22.2002 17.9998 22.2002C16.0902 22.2002 14.2589 21.4206 12.9086 20.0328C11.5584 18.6451 10.7998 16.7629 10.7998 14.8003C10.7998 12.8377 11.5584 10.9555 12.9086 9.56778C14.2589 8.18002 16.0902 7.40039 17.9998 7.40039C19.9094 7.40039 21.7407 8.18002 23.091 9.56778C24.4412 10.9555 25.1998 12.8377 25.1998 14.8003Z" fill="#58E1FF"/>
<path id="Vector_2" fill-rule="evenodd" clip-rule="evenodd" d="M17.2656 36.9848C7.6653 36.5889 0 28.4638 0 18.4998C0 8.28236 8.0586 0 18 0C27.9414 0 36 8.28236 36 18.4998C36 28.7172 27.9414 36.9996 18 36.9996C17.9178 37.0001 17.8356 37.0001 17.7534 36.9996C17.5905 36.9996 17.4276 36.994 17.2656 36.9848ZM6.4494 30.1732C6.31482 29.7759 6.26901 29.3527 6.31537 28.9348C6.36174 28.5169 6.49908 28.1151 6.71722 27.7592C6.93536 27.4033 7.22868 27.1025 7.57541 26.8791C7.92214 26.6556 8.31339 26.5153 8.7201 26.4686C15.7365 25.6703 20.3067 25.7425 27.2889 26.4852C27.6962 26.5288 28.0884 26.6673 28.4357 26.8903C28.7829 27.1132 29.0762 27.4146 29.293 27.7716C29.5098 28.1286 29.6445 28.5317 29.6868 28.9503C29.7291 29.3689 29.6779 29.7919 29.5371 30.187C32.5295 27.0753 34.2054 22.8749 34.2 18.4998C34.2 9.30447 26.9469 1.84998 18 1.84998C9.0531 1.84998 1.8 9.30447 1.8 18.4998C1.8 23.047 3.5739 27.1688 6.4494 30.1732Z" fill="url(#paint0_linear_96_8255)"/>
</g>
<defs>
<linearGradient id="paint0_linear_96_8255" x1="8.1" y1="-8.7874" x2="18.5298" y2="36.879" gradientUnits="userSpaceOnUse">
<stop stop-color="#727DCD"/>
<stop offset="1" stop-color="#58E1FF"/>
</linearGradient>
</defs>
</svg>
