<svg width="44" height="44" viewBox="0 0 44 44" fill="none" xmlns="http://www.w3.org/2000/svg">
<g id="dashicons:money-alt">
<path id="Vector" d="M23.3204 19.8C22.4404 19.58 21.5604 19.14 20.9004 18.48C20.2404 18.26 20.0204 17.6 20.0204 17.16C20.0204 16.72 20.2404 16.06 20.6804 15.84C21.3404 15.4 22.0004 14.96 22.6604 15.18C23.9804 15.18 25.0804 15.84 25.7404 16.72L27.7204 14.08C27.0604 13.42 26.4004 12.98 25.7404 12.54C25.0804 12.1 24.2004 11.88 23.3204 11.88V8.80002H20.6804V11.88C19.5804 12.1 18.4804 12.76 17.6004 13.64C16.7204 14.74 16.0604 16.06 16.2804 17.38C16.2804 18.7 16.7204 20.02 17.6004 20.9C18.7004 22 20.2404 22.66 21.5604 23.32C22.2204 23.54 23.1004 23.98 23.7604 24.42C24.2004 24.86 24.4204 25.52 24.4204 26.18C24.4204 26.84 24.2004 27.5 23.7604 28.16C23.1004 28.82 22.2204 29.04 21.5604 29.04C20.6804 29.04 19.5804 28.82 18.9204 28.16C18.2604 27.72 17.6004 27.06 17.1604 26.4L14.9604 28.82C15.6204 29.7 16.2804 30.36 17.1604 31.02C18.2604 31.68 19.5804 32.34 20.9004 32.34V35.2H23.3204V31.9C24.6404 31.68 25.7404 31.02 26.6204 30.14C27.7204 29.04 28.3804 27.28 28.3804 25.74C28.3804 24.42 27.9404 22.88 26.8404 22C25.7404 20.9 24.6404 20.24 23.3204 19.8ZM22.0004 4.40002C12.3204 4.40002 4.40039 12.32 4.40039 22C4.40039 31.68 12.3204 39.6 22.0004 39.6C31.6804 39.6 39.6004 31.68 39.6004 22C39.6004 12.32 31.6804 4.40002 22.0004 4.40002ZM22.0004 37.18C13.6404 37.18 6.82039 30.36 6.82039 22C6.82039 13.64 13.6404 6.82002 22.0004 6.82002C30.3604 6.82002 37.1804 13.64 37.1804 22C37.1804 30.36 30.3604 37.18 22.0004 37.18Z" fill="url(#paint0_linear_272_918)"/>
</g>
<defs>
<linearGradient id="paint0_linear_272_918" x1="22.0004" y1="4.40002" x2="22.0004" y2="39.6" gradientUnits="userSpaceOnUse">
<stop stop-color="#727DCD"/>
<stop offset="1" stop-color="#58E1FF"/>
</linearGradient>
</defs>
</svg>
